<?xml version="1.0" encoding="UTF-8" standalone="no"?>
<svg
   width="16"
   height="16"
   version="1.1"
   id="svg8"
   sodipodi:docname="org.pastor.Pastor-symbolic.svg"
   inkscape:version="1.1.2 (0a00cf5339, 2022-02-04)"
   xmlns:inkscape="http://www.inkscape.org/namespaces/inkscape"
   xmlns:sodipodi="http://sodipodi.sourceforge.net/DTD/sodipodi-0.dtd"
   xmlns="http://www.w3.org/2000/svg"
   xmlns:svg="http://www.w3.org/2000/svg">
  <defs
     id="defs12" />
  <sodipodi:namedview
     id="namedview10"
     pagecolor="#ffffff"
     bordercolor="#000000"
     borderopacity="0.25"
     inkscape:pageshadow="2"
     inkscape:pageopacity="0.0"
     inkscape:pagecheckerboard="0"
     showgrid="false"
     inkscape:zoom="20.815456"
     inkscape:cx="9.1518534"
     inkscape:cy="7.998864"
     inkscape:window-width="1312"
     inkscape:window-height="699"
     inkscape:window-x="0"
     inkscape:window-y="0"
     inkscape:window-maximized="1"
     inkscape:current-layer="svg8" />
  <path
     d="M 7,0 C 6.445312,0 6,0.4453121 6,1.0000001 H 4 C 2.355469,1.0000001 1,2.355469 1,4 v 9 c 0,1.644531 1.355469,3.000001 3,3.000001 h 8 c 1.644531,0 3,-1.35547 3,-3.000001 V 4 C 15,2.355469 13.644531,1.0000001 12,1.0000001 H 10 C 10,0.4453121 9.554688,0 9,0 Z M 4,3 h 1 v 1 c 0,0.554688 0.445312,1 1,1 h 4 c 0.554688,0 1,-0.445312 1,-1 V 3 h 1 c 0.570312,0 1,0.429688 1,1 v 9 c 0,0.570312 -0.429688,1 -1,1 H 4 C 3.429688,14 3,13.570312 3,13 V 4 C 3,3.429688 3.429688,3 4,3 Z m 0,0"
     fill="#2e3436"
     id="path1506" />
  <g
     id="g12273"
     transform="matrix(0.43333333,0,0,0.43333333,4.5332467,6.3330635)">
    <g
       style="display:inline"
       id="layer9"
       transform="translate(-183,-529)" />
    <g
       id="layer10"
       transform="translate(-183,-529)" />
    <g
       id="layer11"
       transform="translate(-183,-529)">
      <g
         id="g7628"
         style="display:inline;enable-background:new"
         transform="translate(-577.5,1057.0037)">
        <path
           d="m 762.0002,-520 v 1 h 13 v -1 z"
           id="path832"
           style="color:#000000;font-style:normal;font-variant:normal;font-weight:normal;font-stretch:normal;font-size:medium;line-height:normal;font-family:sans-serif;font-variant-ligatures:normal;font-variant-position:normal;font-variant-caps:normal;font-variant-numeric:normal;font-variant-alternates:normal;font-feature-settings:normal;text-indent:0;text-align:start;text-decoration:none;text-decoration-line:none;text-decoration-style:solid;text-decoration-color:#000000;letter-spacing:normal;word-spacing:normal;text-transform:none;writing-mode:lr-tb;direction:ltr;text-orientation:mixed;dominant-baseline:auto;baseline-shift:baseline;text-anchor:start;white-space:normal;shape-padding:0;clip-rule:nonzero;display:inline;overflow:visible;visibility:visible;opacity:0.5;isolation:auto;mix-blend-mode:normal;color-interpolation:sRGB;color-interpolation-filters:linearRGB;solid-color:#000000;solid-opacity:1;vector-effect:none;fill:#2e3436;fill-opacity:1;fill-rule:nonzero;stroke:none;stroke-width:1px;stroke-linecap:butt;stroke-linejoin:miter;stroke-miterlimit:4;stroke-dasharray:none;stroke-dashoffset:0;stroke-opacity:1;color-rendering:auto;image-rendering:auto;shape-rendering:auto;text-rendering:auto;enable-background:accumulate" />
        <path
           d="m 762.0002,-523 v 1 h 13 v -1 z"
           id="path834"
           style="color:#000000;font-style:normal;font-variant:normal;font-weight:normal;font-stretch:normal;font-size:medium;line-height:normal;font-family:sans-serif;font-variant-ligatures:normal;font-variant-position:normal;font-variant-caps:normal;font-variant-numeric:normal;font-variant-alternates:normal;font-feature-settings:normal;text-indent:0;text-align:start;text-decoration:none;text-decoration-line:none;text-decoration-style:solid;text-decoration-color:#000000;letter-spacing:normal;word-spacing:normal;text-transform:none;writing-mode:lr-tb;direction:ltr;text-orientation:mixed;dominant-baseline:auto;baseline-shift:baseline;text-anchor:start;white-space:normal;shape-padding:0;clip-rule:nonzero;display:inline;overflow:visible;visibility:visible;opacity:0.5;isolation:auto;mix-blend-mode:normal;color-interpolation:sRGB;color-interpolation-filters:linearRGB;solid-color:#000000;solid-opacity:1;vector-effect:none;fill:#2e3436;fill-opacity:1;fill-rule:nonzero;stroke:none;stroke-width:1px;stroke-linecap:butt;stroke-linejoin:miter;stroke-miterlimit:4;stroke-dasharray:none;stroke-dashoffset:0;stroke-opacity:1;color-rendering:auto;image-rendering:auto;shape-rendering:auto;text-rendering:auto;enable-background:accumulate" />
        <path
           d="m 762.0002,-517 v 1 h 13 v -1 z"
           id="path836"
           style="color:#000000;font-style:normal;font-variant:normal;font-weight:normal;font-stretch:normal;font-size:medium;line-height:normal;font-family:sans-serif;font-variant-ligatures:normal;font-variant-position:normal;font-variant-caps:normal;font-variant-numeric:normal;font-variant-alternates:normal;font-feature-settings:normal;text-indent:0;text-align:start;text-decoration:none;text-decoration-line:none;text-decoration-style:solid;text-decoration-color:#000000;letter-spacing:normal;word-spacing:normal;text-transform:none;writing-mode:lr-tb;direction:ltr;text-orientation:mixed;dominant-baseline:auto;baseline-shift:baseline;text-anchor:start;white-space:normal;shape-padding:0;clip-rule:nonzero;display:inline;overflow:visible;visibility:visible;opacity:0.5;isolation:auto;mix-blend-mode:normal;color-interpolation:sRGB;color-interpolation-filters:linearRGB;solid-color:#000000;solid-opacity:1;vector-effect:none;fill:#2e3436;fill-opacity:1;fill-rule:nonzero;stroke:none;stroke-width:1px;stroke-linecap:butt;stroke-linejoin:miter;stroke-miterlimit:4;stroke-dasharray:none;stroke-dashoffset:0;stroke-opacity:1;color-rendering:auto;image-rendering:auto;shape-rendering:auto;text-rendering:auto;enable-background:accumulate" />
        <path
           d="m 768.5002,-527 c -4.13029,0 -7.5,3.36971 -7.5,7.5 0,4.13029 3.36971,7.5 7.5,7.5 4.13029,0 7.5,-3.36971 7.5,-7.5 0,-4.13029 -3.36971,-7.5 -7.5,-7.5 z m 0,2 c 0.25596,0 0.50553,0.0232 0.75195,0.0566 0.19059,0.26016 0.38153,0.59041 0.54883,1.02539 0.42182,1.09678 0.69922,2.67505 0.69922,4.41801 0,1.74296 -0.2774,3.31928 -0.69922,4.41602 -0.16776,0.43617 -0.35967,0.767 -0.55078,1.02734 -0.24581,0.0333 -0.49471,0.0566 -0.75,0.0566 -0.25529,0 -0.50419,-0.0234 -0.75,-0.0566 -0.19111,-0.26034 -0.38302,-0.59117 -0.55078,-1.02734 -0.42182,-1.09674 -0.69922,-2.67306 -0.69922,-4.41602 0,-1.74296 0.2774,-3.32123 0.69922,-4.41797 0.1673,-0.43498 0.35824,-0.76523 0.54883,-1.02539 0.24642,-0.0334 0.49599,-0.0566 0.75195,-0.0566 z m -2.08789,0.4082 c -0.0474,0.10764 -0.10239,0.1998 -0.14649,0.31446 -0.483,1.2558 -0.76562,2.93045 -0.76562,4.77734 0,1.84689 0.28262,3.51959 0.76562,4.77539 0.0443,0.11525 0.0988,0.20826 0.14649,0.31641 -2.00637,-0.81832 -3.41211,-2.78264 -3.41211,-5.0918 0,-2.30916 1.40574,-4.27348 3.41211,-5.0918 z m 4.17578,0 c 2.00637,0.81832 3.41211,2.78264 3.41211,5.0918 0,2.30916 -1.40574,4.27348 -3.41211,5.0918 0.0477,-0.10815 0.10216,-0.20116 0.14649,-0.31641 0.483,-1.2558 0.76562,-2.9285 0.76562,-4.77539 0,-1.84689 -0.28263,-3.52154 -0.76562,-4.77734 -0.0441,-0.11466 -0.0991,-0.20682 -0.14649,-0.31446 z"
           id="path838"
           style="color:#000000;font-style:normal;font-variant:normal;font-weight:normal;font-stretch:normal;font-size:medium;line-height:normal;font-family:sans-serif;font-variant-ligatures:normal;font-variant-position:normal;font-variant-caps:normal;font-variant-numeric:normal;font-variant-alternates:normal;font-feature-settings:normal;text-indent:0;text-align:start;text-decoration:none;text-decoration-line:none;text-decoration-style:solid;text-decoration-color:#000000;letter-spacing:normal;word-spacing:normal;text-transform:none;writing-mode:lr-tb;direction:ltr;text-orientation:mixed;dominant-baseline:auto;baseline-shift:baseline;text-anchor:start;white-space:normal;shape-padding:0;clip-rule:nonzero;display:inline;overflow:visible;visibility:visible;opacity:1;isolation:auto;mix-blend-mode:normal;color-interpolation:sRGB;color-interpolation-filters:linearRGB;solid-color:#000000;solid-opacity:1;vector-effect:none;fill:#2e3436;fill-opacity:1;fill-rule:nonzero;stroke:none;stroke-width:1;stroke-linecap:butt;stroke-linejoin:miter;stroke-miterlimit:4;stroke-dasharray:none;stroke-dashoffset:0;stroke-opacity:1;color-rendering:auto;image-rendering:auto;shape-rendering:auto;text-rendering:auto;enable-background:accumulate" />
      </g>
    </g>
    <g
       id="layer13"
       transform="translate(-183,-529)" />
    <g
       id="layer14"
       transform="translate(-183,-529)" />
    <g
       style="display:inline"
       id="layer15"
       transform="translate(-183,-529)" />
    <g
       style="display:inline"
       id="g71291"
       transform="translate(-183,-529)" />
    <g
       style="display:inline"
       id="g4953"
       transform="translate(-183,-529)" />
    <g
       style="display:inline"
       id="layer12"
       transform="translate(-183,-529)" />
  </g>
</svg>
