<?xml version="1.0" encoding="UTF-8" standalone="no"?>
<svg
   height="128px"
   viewBox="0 0 128 128"
   width="128px"
   version="1.1"
   id="svg948"
   sodipodi:docname="org.pastor.Pastor.svg"
   inkscape:export-xdpi="96"
   inkscape:export-ydpi="96"
   inkscape:version="1.1.2 (0a00cf5339, 2022-02-04)"
   xmlns:inkscape="http://www.inkscape.org/namespaces/inkscape"
   xmlns:sodipodi="http://sodipodi.sourceforge.net/DTD/sodipodi-0.dtd"
   xmlns="http://www.w3.org/2000/svg"
   xmlns:svg="http://www.w3.org/2000/svg">
  <defs
     id="defs952" />
  <sodipodi:namedview
     id="namedview950"
     pagecolor="#ffffff"
     bordercolor="#000000"
     borderopacity="0.25"
     inkscape:pageshadow="2"
     inkscape:pageopacity="0.0"
     inkscape:pagecheckerboard="0"
     showgrid="false"
     inkscape:zoom="1.9179687"
     inkscape:cx="55.527495"
     inkscape:cy="62.826884"
     inkscape:window-width="1312"
     inkscape:window-height="699"
     inkscape:window-x="0"
     inkscape:window-y="0"
     inkscape:window-maximized="1"
     inkscape:current-layer="svg948" />
  <linearGradient
     id="a"
     gradientUnits="userSpaceOnUse"
     x1="66.564087"
     x2="106.43541"
     y1="57.485744"
     y2="115.7839">
    <stop
       offset="0"
       stop-color="#62a0ea"
       id="stop913" />
    <stop
       offset="1"
       stop-color="#9141ac"
       id="stop915"
       style="stop-color:#0071d8;stop-opacity:1" />
    <stop
       offset="1"
       stop-color="#ed333b"
       id="stop917"
       style="stop-color:#1a5fb4;stop-opacity:1" />
  </linearGradient>
  <path
     d="M 28.722656,16 H 99.277344 C 104.09375,16 108,20.0625 108,25.078125 V 110.92188 C 108,115.9375 104.09375,120 99.277344,120 H 28.722656 C 23.90625,120 20,115.9375 20,110.92188 V 25.078125 C 20,20.0625 23.90625,16 28.722656,16 Z m 0,0"
     fill="url(#a)"
     id="path920"
     style="mix-blend-mode:normal;opacity:1;fill:url(#a)" />
  <path
     d="m 20 106.921875 v 4.359375 c 0 4.828125 3.890625 8.71875 8.71875 8.71875 h 70.5625 c 4.828125 0 8.71875 -3.890625 8.71875 -8.71875 v -4.359375 c 0 5.027344 -3.890625 9.078125 -8.71875 9.078125 h -70.5625 c -4.828125 0 -8.71875 -4.050781 -8.71875 -9.078125 z m 0 0"
     fill-opacity="0.34902"
     id="path922" />
  <path
     d="m 32,38 h 64 c 2.210938,0 4,1.894183 4,4.23503 v 23.292666 c 0,2.34085 -1.789062,4.23503 -4,4.23503 H 32 c -2.210938,0 -4,-1.89418 -4,-4.23503 V 42.23503 C 28,39.894183 29.789062,38 32,38 Z m 0,0"
     fill="#deddda"
     id="path924"
     style="stroke-width:1.02896" />
  <path
     d="m 32,24 h 64 c 2.210938,0 4,0.9163 4,2.048671 v 35.851741 c 0,1.132371 -1.789062,2.048671 -4,2.048671 H 32 c -2.210938,0 -4,-0.9163 -4,-2.048671 V 26.048671 C 28,24.9163 29.789062,24 32,24 Z m 0,0"
     fill="#ffffff"
     id="path926"
     style="stroke-width:0.715659" />
  <path
     d="m 44 12 c -2.214844 0 -4 1.785156 -4 4 v 14 h 48 v -14 c 0 -2.214844 -1.804688 -4.3125 -4 -4 h -14 l -6 7 l -6 -7 z m 0 0"
     fill="#c0bfbc"
     id="path928" />
  <path
     d="m 70 12 c 0 3.3125 -2.6875 6 -6 6 s -6 -2.6875 -6 -6 s 2.6875 -6 6 -6 s 6 2.6875 6 6 z m 0 0"
     fill="none"
     stroke="#c0bfbc"
     stroke-linejoin="round"
     stroke-width="4"
     id="path930" />
  <path
     d="m 40 28 h 48 v 4 h -48 z m 0 0"
     fill="#9a9996"
     id="path932" />
  <path
     d="M 33.837067,37.485743 H 93.85947 v 4 H 33.837067 Z m 0,0"
     fill="#c0bfbc"
     id="path936"
     style="stroke-width:1.65175" />
  <path
     d="M 33.837067,45.485743 H 93.85947 v 4 H 33.837067 Z m 0,0"
     fill="#c0bfbc"
     id="path1619"
     style="stroke-width:1.65175" />
  <path
     d="m 33.837,53.485743 h 32.727087 v 4 H 33.837 Z m 0,0"
     fill="#c0bfbc"
     id="path1621"
     style="stroke-width:1.21967" />
  <g
     id="g16990"
     transform="matrix(2.4066668,0,0,2.4066668,45.960185,73.011492)"
     style="fill:#ffffff">
    <g
       style="display:inline;fill:#ffffff"
       id="layer9"
       transform="translate(-183,-529)" />
    <g
       id="layer10"
       transform="translate(-183,-529)"
       style="fill:#ffffff" />
    <g
       id="layer11"
       transform="translate(-183,-529)"
       style="fill:#ffffff">
      <g
         id="g7628"
         style="display:inline;fill:#ffffff;enable-background:new"
         transform="translate(-577.5,1057.0037)">
        <path
           d="m 762.0002,-520 v 1 h 13 v -1 z"
           id="path832"
           style="color:#000000;font-style:normal;font-variant:normal;font-weight:normal;font-stretch:normal;font-size:medium;line-height:normal;font-family:sans-serif;font-variant-ligatures:normal;font-variant-position:normal;font-variant-caps:normal;font-variant-numeric:normal;font-variant-alternates:normal;font-feature-settings:normal;text-indent:0;text-align:start;text-decoration:none;text-decoration-line:none;text-decoration-style:solid;text-decoration-color:#000000;letter-spacing:normal;word-spacing:normal;text-transform:none;writing-mode:lr-tb;direction:ltr;text-orientation:mixed;dominant-baseline:auto;baseline-shift:baseline;text-anchor:start;white-space:normal;shape-padding:0;clip-rule:nonzero;display:inline;overflow:visible;visibility:visible;opacity:0.5;isolation:auto;mix-blend-mode:normal;color-interpolation:sRGB;color-interpolation-filters:linearRGB;solid-color:#000000;solid-opacity:1;vector-effect:none;fill:#ffffff;fill-opacity:1;fill-rule:nonzero;stroke:none;stroke-width:1px;stroke-linecap:butt;stroke-linejoin:miter;stroke-miterlimit:4;stroke-dasharray:none;stroke-dashoffset:0;stroke-opacity:1;color-rendering:auto;image-rendering:auto;shape-rendering:auto;text-rendering:auto;enable-background:accumulate" />
        <path
           d="m 762.0002,-523 v 1 h 13 v -1 z"
           id="path834"
           style="color:#000000;font-style:normal;font-variant:normal;font-weight:normal;font-stretch:normal;font-size:medium;line-height:normal;font-family:sans-serif;font-variant-ligatures:normal;font-variant-position:normal;font-variant-caps:normal;font-variant-numeric:normal;font-variant-alternates:normal;font-feature-settings:normal;text-indent:0;text-align:start;text-decoration:none;text-decoration-line:none;text-decoration-style:solid;text-decoration-color:#000000;letter-spacing:normal;word-spacing:normal;text-transform:none;writing-mode:lr-tb;direction:ltr;text-orientation:mixed;dominant-baseline:auto;baseline-shift:baseline;text-anchor:start;white-space:normal;shape-padding:0;clip-rule:nonzero;display:inline;overflow:visible;visibility:visible;opacity:0.5;isolation:auto;mix-blend-mode:normal;color-interpolation:sRGB;color-interpolation-filters:linearRGB;solid-color:#000000;solid-opacity:1;vector-effect:none;fill:#ffffff;fill-opacity:1;fill-rule:nonzero;stroke:none;stroke-width:1px;stroke-linecap:butt;stroke-linejoin:miter;stroke-miterlimit:4;stroke-dasharray:none;stroke-dashoffset:0;stroke-opacity:1;color-rendering:auto;image-rendering:auto;shape-rendering:auto;text-rendering:auto;enable-background:accumulate" />
        <path
           d="m 762.0002,-517 v 1 h 13 v -1 z"
           id="path836"
           style="color:#000000;font-style:normal;font-variant:normal;font-weight:normal;font-stretch:normal;font-size:medium;line-height:normal;font-family:sans-serif;font-variant-ligatures:normal;font-variant-position:normal;font-variant-caps:normal;font-variant-numeric:normal;font-variant-alternates:normal;font-feature-settings:normal;text-indent:0;text-align:start;text-decoration:none;text-decoration-line:none;text-decoration-style:solid;text-decoration-color:#000000;letter-spacing:normal;word-spacing:normal;text-transform:none;writing-mode:lr-tb;direction:ltr;text-orientation:mixed;dominant-baseline:auto;baseline-shift:baseline;text-anchor:start;white-space:normal;shape-padding:0;clip-rule:nonzero;display:inline;overflow:visible;visibility:visible;opacity:0.5;isolation:auto;mix-blend-mode:normal;color-interpolation:sRGB;color-interpolation-filters:linearRGB;solid-color:#000000;solid-opacity:1;vector-effect:none;fill:#ffffff;fill-opacity:1;fill-rule:nonzero;stroke:none;stroke-width:1px;stroke-linecap:butt;stroke-linejoin:miter;stroke-miterlimit:4;stroke-dasharray:none;stroke-dashoffset:0;stroke-opacity:1;color-rendering:auto;image-rendering:auto;shape-rendering:auto;text-rendering:auto;enable-background:accumulate" />
        <path
           d="m 768.5002,-527 c -4.13029,0 -7.5,3.36971 -7.5,7.5 0,4.13029 3.36971,7.5 7.5,7.5 4.13029,0 7.5,-3.36971 7.5,-7.5 0,-4.13029 -3.36971,-7.5 -7.5,-7.5 z m 0,2 c 0.25596,0 0.50553,0.0232 0.75195,0.0566 0.19059,0.26016 0.38153,0.59041 0.54883,1.02539 0.42182,1.09678 0.69922,2.67505 0.69922,4.41801 0,1.74296 -0.2774,3.31928 -0.69922,4.41602 -0.16776,0.43617 -0.35967,0.767 -0.55078,1.02734 -0.24581,0.0333 -0.49471,0.0566 -0.75,0.0566 -0.25529,0 -0.50419,-0.0234 -0.75,-0.0566 -0.19111,-0.26034 -0.38302,-0.59117 -0.55078,-1.02734 -0.42182,-1.09674 -0.69922,-2.67306 -0.69922,-4.41602 0,-1.74296 0.2774,-3.32123 0.69922,-4.41797 0.1673,-0.43498 0.35824,-0.76523 0.54883,-1.02539 0.24642,-0.0334 0.49599,-0.0566 0.75195,-0.0566 z m -2.08789,0.4082 c -0.0474,0.10764 -0.10239,0.1998 -0.14649,0.31446 -0.483,1.2558 -0.76562,2.93045 -0.76562,4.77734 0,1.84689 0.28262,3.51959 0.76562,4.77539 0.0443,0.11525 0.0988,0.20826 0.14649,0.31641 -2.00637,-0.81832 -3.41211,-2.78264 -3.41211,-5.0918 0,-2.30916 1.40574,-4.27348 3.41211,-5.0918 z m 4.17578,0 c 2.00637,0.81832 3.41211,2.78264 3.41211,5.0918 0,2.30916 -1.40574,4.27348 -3.41211,5.0918 0.0477,-0.10815 0.10216,-0.20116 0.14649,-0.31641 0.483,-1.2558 0.76562,-2.9285 0.76562,-4.77539 0,-1.84689 -0.28263,-3.52154 -0.76562,-4.77734 -0.0441,-0.11466 -0.0991,-0.20682 -0.14649,-0.31446 z"
           id="path838"
           style="color:#000000;font-style:normal;font-variant:normal;font-weight:normal;font-stretch:normal;font-size:medium;line-height:normal;font-family:sans-serif;font-variant-ligatures:normal;font-variant-position:normal;font-variant-caps:normal;font-variant-numeric:normal;font-variant-alternates:normal;font-feature-settings:normal;text-indent:0;text-align:start;text-decoration:none;text-decoration-line:none;text-decoration-style:solid;text-decoration-color:#000000;letter-spacing:normal;word-spacing:normal;text-transform:none;writing-mode:lr-tb;direction:ltr;text-orientation:mixed;dominant-baseline:auto;baseline-shift:baseline;text-anchor:start;white-space:normal;shape-padding:0;clip-rule:nonzero;display:inline;overflow:visible;visibility:visible;opacity:1;isolation:auto;mix-blend-mode:normal;color-interpolation:sRGB;color-interpolation-filters:linearRGB;solid-color:#000000;solid-opacity:1;vector-effect:none;fill:#ffffff;fill-opacity:1;fill-rule:nonzero;stroke:none;stroke-width:1;stroke-linecap:butt;stroke-linejoin:miter;stroke-miterlimit:4;stroke-dasharray:none;stroke-dashoffset:0;stroke-opacity:1;color-rendering:auto;image-rendering:auto;shape-rendering:auto;text-rendering:auto;enable-background:accumulate" />
      </g>
    </g>
    <g
       id="layer13"
       transform="translate(-183,-529)"
       style="fill:#ffffff" />
    <g
       id="layer14"
       transform="translate(-183,-529)"
       style="fill:#ffffff" />
    <g
       style="display:inline;fill:#ffffff"
       id="layer15"
       transform="translate(-183,-529)" />
    <g
       style="display:inline;fill:#ffffff"
       id="g71291"
       transform="translate(-183,-529)" />
    <g
       style="display:inline;fill:#ffffff"
       id="g4953"
       transform="translate(-183,-529)" />
    <g
       style="display:inline;fill:#ffffff"
       id="layer12"
       transform="translate(-183,-529)" />
  </g>
  <g
     id="g1074"
     transform="translate(-75.71807,-17.507268)" />
</svg>
